<svg xmlns="http://www.w3.org/2000/svg" version="1.1" xmlns:xlink="http://www.w3.org/1999/xlink" xmlns:svgjs="http://svgjs.com/svgjs" width="512" height="512" x="0" y="0" viewBox="0 0 359.286 359.286" style="enable-background:new 0 0 512 512" xml:space="preserve" class=""><g><g xmlns="http://www.w3.org/2000/svg"><g><path d="m179.643 359.286c99.043 0 179.643-80.6 179.643-179.643s-80.599-179.643-179.643-179.643-179.643 80.6-179.643 179.643 80.6 179.643 179.643 179.643zm0-335.334c85.869 0 155.691 69.821 155.691 155.691s-69.821 155.691-155.691 155.691-155.691-69.821-155.691-155.691 69.822-155.691 155.691-155.691z" fill="#3468fc" data-original="#000000" class=""></path><path d="m232.039 236.89c2.216 1.796 4.85 2.635 7.485 2.635 3.533 0 7.006-1.557 9.341-4.491 4.132-5.15 3.293-12.695-1.856-16.827l-55.39-44.312v-90.061c0-6.587-5.389-11.976-11.976-11.976s-11.976 5.389-11.976 11.976v95.81c0 3.653 1.677 7.066 4.491 9.341z" fill="#3468fc" data-original="#000000" class=""></path></g></g></g></svg>