<svg xmlns="http://www.w3.org/2000/svg" version="1.1" xmlns:xlink="http://www.w3.org/1999/xlink" xmlns:svgjs="http://svgjs.com/svgjs" width="512" height="512" x="0" y="0" viewBox="0 0 90 90" style="enable-background:new 0 0 512 512" xml:space="preserve" class=""><g><path xmlns="http://www.w3.org/2000/svg" d="m23.328 12.485c-1.535.036-2.988.594-4.094 1.699l-5.363 5.375c-2.521 2.519-2.203 6.893.703 9.803l16.016 16.039-16.016 16.032c-2.906 2.909-3.225 7.284-.703 9.808l5.363 5.371c2.521 2.518 6.887 2.205 9.797-.705l16.016-16.037 16.016 16.037c2.912 2.91 7.281 3.223 9.797.705l5.371-5.371c2.516-2.523 2.203-6.898-.709-9.808l-16.016-16.032 16.016-16.039c2.912-2.91 3.225-7.284.709-9.803l-5.371-5.375c-2.516-2.524-6.885-2.205-9.797.709l-16.016 16.033-16.016-16.032c-1.635-1.642-3.734-2.457-5.703-2.409z" fill="#373737" data-original="#000000" class=""></path></g></svg>